<?xml version="1.0" standalone="no"?><!DOCTYPE svg PUBLIC "-//W3C//DTD SVG 1.1//EN" "http://www.w3.org/Graphics/SVG/1.1/DTD/svg11.dtd"><svg class="icon" style="" viewBox="0 0 1024 1024" version="1.1" xmlns="http://www.w3.org/2000/svg" p-id="1885" xmlns:xlink="http://www.w3.org/1999/xlink" width="32" height="32"><defs><style type="text/css"><![CDATA[

]]></style></defs><path d="M1008 103.328l0 817.36c0 23.872-8.608 44.32-25.744 61.536-17.232 17.216-37.728 25.744-61.52 25.744L103.296 1007.968c-23.792 0-44.336-8.528-61.52-25.744C24.64 965.008 16 944.56 16 920.688L16 103.328C16 79.52 24.64 59.024 41.776 41.792c17.168-17.2 37.728-25.776 61.52-25.776l817.44 0c23.776 0 44.288 8.576 61.52 25.776C999.392 59.008 1008 79.52 1008 103.328zM822.48 262.064l19.856-117.104c-12.592-4.64-30.784-8.096-54.56-10.4-23.824-2.32-44.304-3.472-61.536-3.472L700.48 130.08c-52.272 0-92.944 19.184-122.016 57.52-17.216 22.512-25.792 61.856-25.792 118.032l0 6 0 35.696 0 35.728-78.352 0 0 114.08 78.352 0 0 396.832 147.808 0L700.48 497.136l117.04 0 8.96-114.08L700.48 383.056l0-35.728 0-41.664 0-11.824c0-27.76 19.472-41.696 58.544-41.696C779.472 252.08 800.672 255.44 822.48 262.064z" p-id="1886" fill="#bfbfbf"></path></svg>