<?xml version="1.0" standalone="no"?><!DOCTYPE svg PUBLIC "-//W3C//DTD SVG 1.1//EN" "http://www.w3.org/Graphics/SVG/1.1/DTD/svg11.dtd"><svg class="icon" style="" viewBox="0 0 1024 1024" version="1.1" xmlns="http://www.w3.org/2000/svg" p-id="1557" xmlns:xlink="http://www.w3.org/1999/xlink" width="32" height="32"><defs><style type="text/css"><![CDATA[

]]></style></defs><path d="M757.343289 503.449253c-39.71349-7.705496-20.413935-29.079292-20.413935-29.079292s38.858006-64.046688-7.688099-110.609167c-57.685817-57.669444-197.862393 7.338129-197.862393 7.338129-53.534264 16.614399-39.3451-7.582699-31.778774-48.758494 0-48.516993-16.614399-130.627083-159.231561-82.125439-142.480039 48.759517-264.807085 219.60151-264.807085 219.60151C-9.509073 573.33902 1.750365 661.078317 1.750365 661.078317c21.252023 193.697537 227.062436 246.865457 387.132084 259.453147 168.416757 13.210883 395.708414-58.052161 464.638319-204.452485C922.433278 569.434084 797.191856 511.397273 757.343289 503.449253zM401.348366 865.913519c-167.180604 7.810896-302.337863-76.023464-302.337863-187.594539 0-111.692848 135.157259-201.26284 302.337863-208.967312 167.302377-7.704472 302.71751 61.22441 302.71751 172.689061C704.065875 753.59543 568.650743 858.314447 401.348366 865.913519z" p-id="1558" fill="#bfbfbf"></path><path d="M367.997793 542.91715C199.839933 562.596352 219.27661 720.105688 219.27661 720.105688s-1.724271 49.873897 45.082778 75.275427c98.389868 53.29174 199.693088 21.023826 250.89319-45.067428C566.453704 684.191734 536.398178 523.374048 367.997793 542.91715zM325.584821 763.984035c-31.398104 3.676739-56.69321-14.417361-56.69321-40.689724 0-26.15059 22.472827-53.534264 53.884234-56.814983 36.066427-3.432169 59.531861 17.347087 59.531861 43.61945C382.308731 736.248344 356.860129 760.429069 325.584821 763.984035zM424.70533 679.539784c-10.633175 7.950066-23.723308 6.850012-29.337165-2.685155-5.859451-9.29162-3.662413-24.197098 7.093559-32.024367 12.464893-9.275247 25.417903-6.604418 31.032784 2.701528C439.122691 657.050584 435.095981 671.347195 424.70533 679.539784z" p-id="1559" fill="#bfbfbf"></path><path d="M839.224158 435.252035c13.546527 0 25.066909-10.022261 27.004027-23.098068 0.24457-0.977257 0.36532-1.830695 0.36532-2.928702C887.129214 224.575802 715.294614 256.354576 715.294614 256.354576c-15.255449 0-27.491121 12.343119-27.491121 27.736715 0 15.149025 12.235672 27.492144 27.491121 27.492144 123.426077-27.247574 96.192829 96.17748 96.192829 96.17748C811.487444 423.031712 823.921637 435.252035 839.224158 435.252035z" p-id="1560" fill="#bfbfbf"></path><path d="M819.192939 106.736976c-59.410088-13.913894-120.511701 1.181919-137.628544 4.462638-1.327228 0.12075-2.564405 2.930749-3.783163 3.176342-0.595564 0.12075-0.961908 1.5104-0.961908 1.5104C659.946029 120.662127 647.602909 136.667659 647.602909 155.128103c0 21.999037 17.836227 40.298821 40.078811 40.298821 0 0 21.633716-2.801812 36.295648-8.538467 14.540158-5.858428 137.598868-4.316306 198.714807 98.330516 33.351596 74.909084 14.662955 125.0736 12.32777 133.128043 0 0-7.933693 19.4684-7.933693 38.629809 0 22.122857 17.84953 29.800723 39.941688 29.800723 18.475793 0 33.992185-8.261151 38.523385-39.983643l0.242524 0C1071.412334 228.828662 925.500127 131.546012 819.192939 106.736976z" p-id="1561" fill="#bfbfbf"></path></svg>